<svg xmlns="http://www.w3.org/2000/svg" xmlns:xlink="http://www.w3.org/1999/xlink" width="300" zoomAndPan="magnify" viewBox="0 0 224.87999 93.749996" height="125" preserveAspectRatio="xMidYMid meet" version="1.2"><defs><clipPath id="12775070e8"><path d="M 0.238281 53 L 33 53 L 33 85 L 0.238281 85 Z M 0.238281 53 "/></clipPath><clipPath id="e2a0e011aa"><path d="M 196 16 L 224.519531 16 L 224.519531 47 L 196 47 Z M 196 16 "/></clipPath><clipPath id="6ba5b0373b"><path d="M 1.402344 7.894531 L 44 7.894531 L 44 50.53125 L 1.402344 50.53125 Z M 1.402344 7.894531 "/></clipPath></defs><g id="9e760d111c"><g clip-rule="nonzero" clip-path="url(#12775070e8)"><g style="fill:#ffffff;fill-opacity:1;"><g transform="translate(0.276381, 84.113453)"><path style="stroke:none" d="M 22.21875 0 L 20.90625 -2.6875 C 20.445312 -1.894531 19.597656 -1.179688 18.359375 -0.546875 C 17.128906 0.078125 15.6875 0.390625 14.03125 0.390625 C 11.5625 0.390625 9.304688 -0.21875 7.265625 -1.4375 C 5.234375 -2.664062 3.617188 -4.40625 2.421875 -6.65625 C 1.234375 -8.90625 0.640625 -11.5625 0.640625 -14.625 C 0.640625 -16.957031 1 -19.082031 1.71875 -21 C 2.445312 -22.925781 3.4375 -24.582031 4.6875 -25.96875 C 5.9375 -27.363281 7.34375 -28.4375 8.90625 -29.1875 C 10.476562 -29.945312 12.085938 -30.328125 13.734375 -30.328125 C 15.265625 -30.328125 16.535156 -30.175781 17.546875 -29.875 C 18.554688 -29.582031 19.359375 -29.222656 19.953125 -28.796875 C 20.554688 -28.367188 21.015625 -27.960938 21.328125 -27.578125 C 21.640625 -27.191406 21.878906 -26.914062 22.046875 -26.75 L 22.953125 -29.8125 L 29.3125 -29.8125 L 29.3125 -17.234375 L 21.671875 -17.234375 C 21.609375 -18.960938 21.09375 -20.296875 20.125 -21.234375 C 19.164062 -22.179688 18.0625 -22.65625 16.8125 -22.65625 C 15.664062 -22.65625 14.648438 -22.285156 13.765625 -21.546875 C 12.890625 -20.804688 12.203125 -19.820312 11.703125 -18.59375 C 11.210938 -17.375 10.96875 -16.050781 10.96875 -14.625 C 10.96875 -13.175781 11.191406 -11.863281 11.640625 -10.6875 C 12.097656 -9.507812 12.765625 -8.5625 13.640625 -7.84375 C 14.523438 -7.132812 15.582031 -6.78125 16.8125 -6.78125 C 18.03125 -6.78125 18.9375 -6.992188 19.53125 -7.421875 C 20.132812 -7.847656 20.59375 -8.332031 20.90625 -8.875 L 20.90625 -10.65625 L 18.296875 -10.65625 L 18.296875 -15.234375 L 32.46875 -15.234375 L 32.46875 -10.65625 L 30.75 -10.65625 L 30.75 0 Z M 22.21875 0 "/></g></g></g><g style="fill:#ffffff;fill-opacity:1;"><g transform="translate(33.368666, 84.113453)"><path style="stroke:none" d="M 0.640625 -29.8125 L 14.203125 -29.8125 L 14.203125 -24.3125 L 11.90625 -24.3125 L 11.90625 -15.09375 C 11.90625 -12.820312 12.066406 -11.082031 12.390625 -9.875 C 12.710938 -8.664062 13.191406 -7.847656 13.828125 -7.421875 C 14.472656 -6.992188 15.253906 -6.78125 16.171875 -6.78125 C 17.046875 -6.78125 17.800781 -6.960938 18.4375 -7.328125 C 19.082031 -7.703125 19.582031 -8.484375 19.9375 -9.671875 C 20.289062 -10.867188 20.46875 -12.691406 20.46875 -15.140625 L 20.46875 -24.1875 L 18.171875 -24.1875 L 18.171875 -29.8125 L 30.796875 -29.8125 L 30.796875 -24.3125 L 28.5 -24.3125 L 28.5 -13.953125 C 28.5 -8.890625 27.457031 -5.175781 25.375 -2.8125 C 23.300781 -0.457031 20.257812 0.71875 16.25 0.71875 C 11.957031 0.582031 8.679688 -0.648438 6.421875 -2.984375 C 4.160156 -5.316406 3.03125 -8.898438 3.03125 -13.734375 L 3.03125 -24.265625 L 0.640625 -24.265625 Z M 0.640625 -29.8125 "/></g></g><g style="fill:#ffffff;fill-opacity:1;"><g transform="translate(64.797802, 84.113453)"><path style="stroke:none" d="M 1.0625 0 L 1.0625 -10.75 L 9 -10.75 C 9 -9.863281 9.191406 -9.144531 9.578125 -8.59375 C 9.960938 -8.039062 10.445312 -7.613281 11.03125 -7.3125 C 11.613281 -7.019531 12.203125 -6.816406 12.796875 -6.703125 C 13.390625 -6.585938 13.914062 -6.515625 14.375 -6.484375 C 14.882812 -6.484375 15.414062 -6.53125 15.96875 -6.625 C 16.53125 -6.726562 17.007812 -6.9375 17.40625 -7.25 C 17.800781 -7.5625 18 -8.015625 18 -8.609375 C 18 -9.097656 17.695312 -9.5 17.09375 -9.8125 C 16.5 -10.125 15.71875 -10.421875 14.75 -10.703125 C 13.789062 -10.992188 12.726562 -11.300781 11.5625 -11.625 C 10.394531 -11.945312 9.226562 -12.347656 8.0625 -12.828125 C 6.894531 -13.316406 5.828125 -13.9375 4.859375 -14.6875 C 3.890625 -15.445312 3.109375 -16.363281 2.515625 -17.4375 C 1.921875 -18.519531 1.625 -19.84375 1.625 -21.40625 C 1.625 -23 1.945312 -24.367188 2.59375 -25.515625 C 3.25 -26.671875 4.097656 -27.617188 5.140625 -28.359375 C 6.179688 -29.097656 7.28125 -29.648438 8.4375 -30.015625 C 9.601562 -30.390625 10.710938 -30.578125 11.765625 -30.578125 C 13.554688 -30.578125 15.273438 -30.25 16.921875 -29.59375 C 18.578125 -28.945312 19.832031 -27.828125 20.6875 -26.234375 L 21.109375 -29.8125 L 28.453125 -29.8125 L 28.453125 -19.109375 L 20.734375 -19.109375 C 20.734375 -20.703125 20.195312 -21.925781 19.125 -22.78125 C 18.0625 -23.632812 16.773438 -24.0625 15.265625 -24.0625 C 14.640625 -24.0625 13.992188 -23.867188 13.328125 -23.484375 C 12.660156 -23.097656 12.328125 -22.535156 12.328125 -21.796875 C 12.328125 -21.171875 12.628906 -20.632812 13.234375 -20.1875 C 13.847656 -19.75 14.660156 -19.34375 15.671875 -18.96875 C 16.679688 -18.601562 17.785156 -18.226562 18.984375 -17.84375 C 20.179688 -17.46875 21.375 -17.019531 22.5625 -16.5 C 23.757812 -15.988281 24.863281 -15.378906 25.875 -14.671875 C 26.882812 -13.960938 27.691406 -13.09375 28.296875 -12.0625 C 28.910156 -11.039062 29.21875 -9.820312 29.21875 -8.40625 C 29.21875 -6.75 28.875 -5.335938 28.1875 -4.171875 C 27.507812 -3.015625 26.609375 -2.085938 25.484375 -1.390625 C 24.359375 -0.691406 23.132812 -0.179688 21.8125 0.140625 C 20.488281 0.472656 19.191406 0.640625 17.921875 0.640625 C 15.753906 0.640625 13.929688 0.226562 12.453125 -0.59375 C 10.972656 -1.414062 9.820312 -2.3125 9 -3.28125 L 8.53125 0 Z M 1.0625 0 "/></g></g><g style="fill:#ffffff;fill-opacity:1;"><g transform="translate(95.075528, 84.113453)"><path style="stroke:none" d="M 29.265625 -29.8125 L 29.265625 -18.71875 L 22.984375 -18.71875 L 22.984375 -24.1875 L 19.40625 -24.1875 L 19.40625 -5.671875 L 22.953125 -5.671875 L 22.953125 0 L 7.078125 0 L 7.078125 -5.671875 L 10.578125 -5.671875 L 10.578125 -24.1875 L 6.90625 -24.1875 L 6.90625 -18.71875 L 0.640625 -18.71875 L 0.640625 -29.8125 Z M 29.265625 -29.8125 "/></g></g><g style="fill:#ffffff;fill-opacity:1;"><g transform="translate(124.969453, 84.113453)"><path style="stroke:none" d="M 34.46875 0 L 17.359375 0 L 17.359375 -5.59375 L 21.40625 -5.59375 L 20.515625 -8.484375 L 11.765625 -8.484375 L 10.875 -5.59375 L 14.203125 -5.59375 L 14.203125 0 L 0.640625 0 L 0.640625 -5.59375 L 3.546875 -5.59375 L 9.296875 -24.3125 L 7.546875 -24.3125 L 7.546875 -29.8125 L 23.9375 -29.8125 L 31.484375 -5.59375 L 34.46875 -5.59375 Z M 13.34375 -13.609375 L 18.9375 -13.609375 L 16.125 -22.828125 Z M 13.34375 -13.609375 "/></g></g><g style="fill:#ffffff;fill-opacity:1;"><g transform="translate(160.066036, 84.113453)"><path style="stroke:none" d="M 17.921875 -9.5625 L 18.125 -9.5625 C 18.1875 -10.15625 18.351562 -10.941406 18.625 -11.921875 C 18.894531 -12.898438 19.242188 -13.914062 19.671875 -14.96875 L 23.546875 -24.265625 L 21.28125 -24.265625 L 21.28125 -29.8125 L 33.40625 -29.8125 L 33.40625 -24.265625 L 31.3125 -24.265625 L 21.078125 0 L 13.21875 0 L 1.921875 -24.265625 L -0.421875 -24.265625 L -0.421875 -29.8125 L 15.265625 -29.8125 L 15.265625 -24.265625 L 12.96875 -24.265625 L 16.59375 -14.71875 C 16.9375 -13.664062 17.234375 -12.691406 17.484375 -11.796875 C 17.742188 -10.898438 17.890625 -10.15625 17.921875 -9.5625 Z M 17.921875 -9.5625 "/></g></g><g style="fill:#ffffff;fill-opacity:1;"><g transform="translate(193.030384, 84.113453)"><path style="stroke:none" d="M 15.90625 0.765625 C 12.945312 0.765625 10.316406 0.191406 8.015625 -0.953125 C 5.710938 -2.109375 3.90625 -3.859375 2.59375 -6.203125 C 1.289062 -8.546875 0.640625 -11.5 0.640625 -15.0625 C 0.640625 -18.132812 1.269531 -20.84375 2.53125 -23.1875 C 3.800781 -25.53125 5.566406 -27.351562 7.828125 -28.65625 C 10.085938 -29.96875 12.679688 -30.625 15.609375 -30.625 C 19.109375 -30.625 21.988281 -29.96875 24.25 -28.65625 C 26.507812 -27.351562 28.1875 -25.515625 29.28125 -23.140625 C 30.375 -20.765625 30.921875 -17.972656 30.921875 -14.765625 C 30.921875 -11.546875 30.335938 -8.773438 29.171875 -6.453125 C 28.003906 -4.140625 26.304688 -2.359375 24.078125 -1.109375 C 21.847656 0.140625 19.125 0.765625 15.90625 0.765625 Z M 15.90625 -5.921875 C 17.25 -5.921875 18.3125 -6.734375 19.09375 -8.359375 C 19.875 -9.984375 20.265625 -12.117188 20.265625 -14.765625 C 20.265625 -16.492188 20.097656 -18.054688 19.765625 -19.453125 C 19.441406 -20.847656 18.9375 -21.960938 18.25 -22.796875 C 17.570312 -23.640625 16.675781 -24.0625 15.5625 -24.0625 C 14.71875 -24.082031 13.957031 -23.707031 13.28125 -22.9375 C 12.613281 -22.175781 12.09375 -21.113281 11.71875 -19.75 C 11.351562 -18.382812 11.171875 -16.820312 11.171875 -15.0625 C 11.171875 -12.269531 11.617188 -10.046875 12.515625 -8.390625 C 13.410156 -6.742188 14.539062 -5.921875 15.90625 -5.921875 Z M 15.90625 -5.921875 "/></g></g><g style="fill:#ffffff;fill-opacity:1;"><g transform="translate(46.866226, 45.309752)"><path style="stroke:none" d="M 38.105469 -37.792969 L 38.105469 -22.722656 L 28.128906 -22.722656 L 28.128906 -30.65625 L 29.144531 -30.65625 L 29.144531 -29.644531 L 24.601562 -29.644531 L 24.601562 -30.65625 L 25.617188 -30.65625 L 25.617188 -7.191406 L 24.601562 -7.191406 L 24.601562 -8.207031 L 30.101562 -8.207031 L 30.101562 1.015625 L 7.960938 1.015625 L 7.960938 -8.207031 L 13.410156 -8.207031 L 13.410156 -7.191406 L 12.394531 -7.191406 L 12.394531 -30.65625 L 13.410156 -30.65625 L 13.410156 -29.644531 L 8.757812 -29.644531 L 8.757812 -30.65625 L 9.773438 -30.65625 L 9.773438 -22.722656 L -0.203125 -22.722656 L -0.203125 -38.808594 L 38.105469 -38.808594 Z M 36.078125 -37.792969 L 37.09375 -37.792969 L 37.09375 -36.78125 L 0.8125 -36.78125 L 0.8125 -37.792969 L 1.824219 -37.792969 L 1.824219 -23.738281 L 0.8125 -23.738281 L 0.8125 -24.75 L 8.757812 -24.75 L 8.757812 -23.738281 L 7.746094 -23.738281 L 7.746094 -31.671875 L 14.421875 -31.671875 L 14.421875 -6.175781 L 8.976562 -6.175781 L 8.976562 -7.191406 L 9.988281 -7.191406 L 9.988281 0 L 8.976562 0 L 8.976562 -1.015625 L 29.089844 -1.015625 L 29.089844 0 L 28.074219 0 L 28.074219 -7.191406 L 29.089844 -7.191406 L 29.089844 -6.175781 L 23.585938 -6.175781 L 23.585938 -31.671875 L 30.15625 -31.671875 L 30.15625 -23.738281 L 29.144531 -23.738281 L 29.144531 -24.75 L 37.09375 -24.75 L 37.09375 -23.738281 L 36.078125 -23.738281 Z M 36.078125 -37.792969 "/></g></g><g style="fill:#ffffff;fill-opacity:1;"><g transform="translate(84.761466, 45.309752)"><path style="stroke:none" d="M 18.328125 1.015625 L 0.335938 1.015625 L 0.335938 -8.097656 L 3.621094 -8.097656 L 3.621094 -7.082031 L 2.609375 -7.082031 L 2.609375 -33.523438 L 3.621094 -33.523438 L 3.621094 -32.507812 L 0.335938 -32.507812 L 0.335938 -41.566406 L 15.449219 -41.566406 L 15.449219 -23.683594 L 14.4375 -23.683594 L 13.59375 -24.246094 C 13.863281 -24.652344 14.460938 -25.238281 15.382812 -26.003906 C 16.296875 -26.761719 17.40625 -27.445312 18.707031 -28.058594 C 20.070312 -28.703125 21.476562 -29.023438 22.925781 -29.023438 C 25.191406 -29.023438 27.03125 -28.628906 28.449219 -27.839844 C 29.878906 -27.042969 30.957031 -25.980469 31.683594 -24.65625 C 32.371094 -23.398438 32.832031 -22.007812 33.066406 -20.484375 C 33.289062 -19.027344 33.402344 -17.570312 33.402344 -16.113281 L 33.402344 -7.082031 L 32.386719 -7.082031 L 32.386719 -8.097656 L 35.941406 -8.097656 L 35.941406 1.015625 L 20.019531 1.015625 L 20.019531 -14.707031 C 20.019531 -15.28125 19.976562 -15.945312 19.890625 -16.703125 C 19.820312 -17.3125 19.625 -17.832031 19.304688 -18.261719 C 19.074219 -18.570312 18.585938 -18.722656 17.84375 -18.722656 C 17.230469 -18.722656 16.769531 -18.5625 16.464844 -18.246094 C 16.085938 -17.859375 15.832031 -17.375 15.691406 -16.796875 C 15.53125 -16.117188 15.449219 -15.421875 15.449219 -14.707031 L 15.449219 -7.082031 L 14.4375 -7.082031 L 14.4375 -8.097656 L 19.34375 -8.097656 L 19.34375 1.015625 Z M 18.328125 -1.015625 L 18.328125 0 L 17.316406 0 L 17.316406 -7.082031 L 18.328125 -7.082031 L 18.328125 -6.070312 L 13.421875 -6.070312 L 13.421875 -14.707031 C 13.421875 -15.578125 13.523438 -16.433594 13.71875 -17.265625 C 13.945312 -18.203125 14.371094 -19 15.003906 -19.65625 C 15.707031 -20.386719 16.65625 -20.75 17.84375 -20.75 C 19.261719 -20.75 20.289062 -20.324219 20.925781 -19.480469 C 21.46875 -18.753906 21.792969 -17.90625 21.90625 -16.929688 C 22 -16.097656 22.046875 -15.359375 22.046875 -14.707031 L 22.046875 0 L 21.03125 0 L 21.03125 -1.015625 L 34.929688 -1.015625 L 34.929688 0 L 33.914062 0 L 33.914062 -7.082031 L 34.929688 -7.082031 L 34.929688 -6.070312 L 31.375 -6.070312 L 31.375 -16.113281 C 31.375 -17.46875 31.269531 -18.820312 31.0625 -20.175781 C 30.863281 -21.464844 30.476562 -22.632812 29.902344 -23.683594 C 29.367188 -24.664062 28.550781 -25.460938 27.460938 -26.066406 C 26.351562 -26.683594 24.839844 -26.996094 22.925781 -26.996094 C 21.777344 -26.996094 20.660156 -26.738281 19.574219 -26.226562 C 18.425781 -25.683594 17.460938 -25.089844 16.679688 -24.441406 C 15.90625 -23.804688 15.441406 -23.363281 15.28125 -23.121094 L 13.421875 -20.332031 L 13.421875 -40.550781 L 14.4375 -40.550781 L 14.4375 -39.539062 L 1.351562 -39.539062 L 1.351562 -40.550781 L 2.367188 -40.550781 L 2.367188 -33.523438 L 1.351562 -33.523438 L 1.351562 -34.539062 L 4.636719 -34.539062 L 4.636719 -6.070312 L 1.351562 -6.070312 L 1.351562 -7.082031 L 2.367188 -7.082031 L 2.367188 0 L 1.351562 0 L 1.351562 -1.015625 Z M 18.328125 -1.015625 "/></g></g><g style="fill:#ffffff;fill-opacity:1;"><g transform="translate(120.494348, 45.309752)"><path style="stroke:none" d="M 1.851562 -34.929688 C 1.851562 -35.925781 2.117188 -36.921875 2.644531 -37.917969 C 3.175781 -38.917969 3.945312 -39.75 4.953125 -40.421875 C 5.988281 -41.113281 7.238281 -41.457031 8.707031 -41.457031 C 10.167969 -41.457031 11.425781 -41.113281 12.476562 -40.429688 C 13.5 -39.757812 14.289062 -38.929688 14.835938 -37.933594 C 15.390625 -36.933594 15.667969 -35.933594 15.667969 -34.929688 C 15.667969 -33.179688 15.058594 -31.667969 13.847656 -30.390625 C 12.621094 -29.101562 10.90625 -28.453125 8.707031 -28.453125 C 7.390625 -28.453125 6.210938 -28.785156 5.164062 -29.449219 C 4.144531 -30.09375 3.34375 -30.894531 2.757812 -31.859375 C 2.152344 -32.851562 1.851562 -33.875 1.851562 -34.929688 Z M 3.878906 -34.929688 C 3.878906 -34.253906 4.082031 -33.582031 4.488281 -32.914062 C 4.910156 -32.222656 5.496094 -31.636719 6.246094 -31.164062 C 6.964844 -30.707031 7.785156 -30.480469 8.707031 -30.480469 C 10.324219 -30.480469 11.550781 -30.917969 12.375 -31.789062 C 13.21875 -32.675781 13.640625 -33.722656 13.640625 -34.929688 C 13.640625 -35.582031 13.445312 -36.257812 13.0625 -36.953125 C 12.675781 -37.652344 12.109375 -38.246094 11.367188 -38.730469 C 10.652344 -39.195312 9.765625 -39.429688 8.707031 -39.429688 C 7.648438 -39.429688 6.773438 -39.199219 6.078125 -38.734375 C 5.355469 -38.253906 4.808594 -37.664062 4.4375 -36.96875 C 4.066406 -36.269531 3.878906 -35.589844 3.878906 -34.929688 Z M 16.492188 1.015625 L 0.335938 1.015625 L 0.335938 -8.097656 L 3.621094 -8.097656 L 3.621094 -7.082031 L 2.609375 -7.082031 L 2.609375 -20.003906 L 3.621094 -20.003906 L 3.621094 -18.992188 L 0.335938 -18.992188 L 0.335938 -28.046875 L 14.910156 -28.046875 L 14.910156 -7.082031 L 13.894531 -7.082031 L 13.894531 -8.097656 L 17.503906 -8.097656 L 17.503906 1.015625 Z M 16.492188 -1.015625 L 16.492188 0 L 15.476562 0 L 15.476562 -7.082031 L 16.492188 -7.082031 L 16.492188 -6.070312 L 12.882812 -6.070312 L 12.882812 -27.035156 L 13.894531 -27.035156 L 13.894531 -26.019531 L 1.351562 -26.019531 L 1.351562 -27.035156 L 2.367188 -27.035156 L 2.367188 -20.003906 L 1.351562 -20.003906 L 1.351562 -21.019531 L 4.636719 -21.019531 L 4.636719 -6.070312 L 1.351562 -6.070312 L 1.351562 -7.082031 L 2.367188 -7.082031 L 2.367188 0 L 1.351562 0 L 1.351562 -1.015625 Z M 16.492188 -1.015625 "/></g></g><g style="fill:#ffffff;fill-opacity:1;"><g transform="translate(138.333763, 45.309752)"><path style="stroke:none" d="M -0.203125 0 L -0.203125 -10.746094 L 9.070312 -10.746094 L 9.070312 -9.734375 C 9.070312 -9.136719 9.300781 -8.671875 9.761719 -8.332031 C 10.386719 -7.878906 11.082031 -7.566406 11.84375 -7.398438 C 12.671875 -7.214844 13.320312 -7.125 13.789062 -7.125 C 14.183594 -7.125 14.578125 -7.210938 14.96875 -7.386719 C 15.089844 -7.441406 15.152344 -7.628906 15.152344 -7.949219 L 15.15625 -7.945312 C 15.152344 -7.953125 15.144531 -7.964844 15.128906 -7.980469 C 15.035156 -8.078125 14.863281 -8.175781 14.613281 -8.273438 C 13.859375 -8.5625 12.90625 -8.847656 11.742188 -9.125 C 10.503906 -9.421875 9.222656 -9.789062 7.898438 -10.230469 C 6.585938 -10.691406 5.351562 -11.296875 4.183594 -12.042969 C 2.953125 -12.828125 1.957031 -13.847656 1.191406 -15.097656 C 0.40625 -16.375 0.0117188 -17.957031 0.0117188 -19.84375 C 0.0117188 -21.40625 0.371094 -22.761719 1.085938 -23.917969 C 1.777344 -25.039062 2.671875 -25.957031 3.773438 -26.667969 C 4.835938 -27.355469 5.964844 -27.867188 7.164062 -28.199219 C 8.351562 -28.53125 9.476562 -28.699219 10.542969 -28.699219 C 12.558594 -28.699219 14.382812 -28.238281 16.015625 -27.324219 C 17.671875 -26.394531 18.835938 -25.257812 19.507812 -23.917969 L 18.601562 -23.464844 L 17.59375 -23.589844 L 18.132812 -28.046875 L 26.695312 -28.046875 L 26.695312 -16.289062 L 17.640625 -16.289062 L 17.640625 -17.300781 C 17.640625 -17.804688 17.453125 -18.265625 17.082031 -18.6875 C 16.640625 -19.1875 16.0625 -19.597656 15.347656 -19.917969 C 14.632812 -20.238281 13.894531 -20.398438 13.140625 -20.398438 C 12.785156 -20.398438 12.488281 -20.3125 12.253906 -20.136719 C 12.113281 -20.03125 12.042969 -19.808594 12.042969 -19.464844 C 12.042969 -19.363281 12.183594 -19.234375 12.460938 -19.085938 C 13.035156 -18.773438 13.796875 -18.464844 14.746094 -18.160156 C 15.761719 -17.832031 16.851562 -17.46875 18.011719 -17.070312 C 19.410156 -16.59375 20.792969 -16.039062 22.160156 -15.410156 C 23.636719 -14.734375 24.863281 -13.792969 25.847656 -12.589844 C 26.882812 -11.324219 27.398438 -9.613281 27.398438 -7.460938 C 27.398438 -5.53125 26.847656 -3.871094 25.75 -2.480469 C 24.6875 -1.136719 23.320312 -0.109375 21.648438 0.609375 C 20.007812 1.3125 18.234375 1.664062 16.328125 1.664062 C 14.207031 1.664062 12.339844 1.214844 10.726562 0.320312 C 9.117188 -0.574219 7.945312 -1.597656 7.203125 -2.75 L 8.054688 -3.296875 L 9.058594 -3.148438 L 8.445312 1.015625 L -0.203125 1.015625 Z M 1.824219 0 L 0.8125 0 L 0.8125 -1.015625 L 7.570312 -1.015625 L 7.570312 0 L 6.566406 -0.148438 L 7.449219 -6.121094 L 8.910156 -3.847656 C 9.464844 -2.980469 10.402344 -2.183594 11.710938 -1.453125 C 13.019531 -0.726562 14.558594 -0.363281 16.328125 -0.363281 C 17.957031 -0.363281 19.464844 -0.664062 20.851562 -1.257812 C 22.207031 -1.835938 23.308594 -2.664062 24.15625 -3.738281 C 24.96875 -4.761719 25.371094 -6.003906 25.371094 -7.460938 C 25.371094 -9.132812 25.007812 -10.414062 24.277344 -11.308594 C 23.492188 -12.269531 22.503906 -13.023438 21.3125 -13.570312 C 20.011719 -14.167969 18.691406 -14.695312 17.351562 -15.152344 C 16.203125 -15.546875 15.128906 -15.90625 14.125 -16.230469 C 13.058594 -16.574219 12.179688 -16.929688 11.492188 -17.304688 C 10.507812 -17.835938 10.015625 -18.558594 10.015625 -19.464844 C 10.015625 -20.492188 10.359375 -21.257812 11.050781 -21.765625 C 11.644531 -22.207031 12.339844 -22.425781 13.140625 -22.425781 C 14.183594 -22.425781 15.195312 -22.207031 16.175781 -21.769531 C 17.15625 -21.332031 17.964844 -20.75 18.601562 -20.027344 C 19.3125 -19.222656 19.667969 -18.316406 19.667969 -17.300781 L 18.652344 -17.300781 L 18.652344 -18.316406 L 25.683594 -18.316406 L 25.683594 -17.300781 L 24.667969 -17.300781 L 24.667969 -27.035156 L 25.683594 -27.035156 L 25.683594 -26.019531 L 19.03125 -26.019531 L 19.03125 -27.035156 L 20.039062 -26.914062 L 19.199219 -19.996094 L 17.691406 -23.011719 C 17.210938 -23.980469 16.320312 -24.828125 15.023438 -25.554688 C 13.699219 -26.296875 12.207031 -26.667969 10.542969 -26.667969 C 9.664062 -26.667969 8.71875 -26.527344 7.707031 -26.246094 C 6.707031 -25.96875 5.761719 -25.542969 4.878906 -24.96875 C 4.03125 -24.417969 3.34375 -23.714844 2.808594 -22.851562 C 2.296875 -22.023438 2.042969 -21.019531 2.042969 -19.84375 C 2.042969 -18.339844 2.332031 -17.109375 2.917969 -16.15625 C 3.523438 -15.171875 4.308594 -14.367188 5.277344 -13.75 C 6.3125 -13.089844 7.398438 -12.558594 8.539062 -12.152344 C 9.808594 -11.730469 11.03125 -11.378906 12.210938 -11.097656 C 13.464844 -10.796875 14.507812 -10.488281 15.34375 -10.164062 C 16.566406 -9.691406 17.179688 -8.953125 17.179688 -7.949219 C 17.179688 -7.402344 17.078125 -6.933594 16.867188 -6.535156 C 16.628906 -6.082031 16.273438 -5.75 15.796875 -5.535156 C 15.144531 -5.242188 14.472656 -5.097656 13.789062 -5.097656 C 13.171875 -5.097656 12.378906 -5.203125 11.40625 -5.417969 C 10.367188 -5.644531 9.421875 -6.074219 8.566406 -6.699219 C 7.550781 -7.441406 7.042969 -8.453125 7.042969 -9.734375 L 8.054688 -9.734375 L 8.054688 -8.71875 L 0.8125 -8.71875 L 0.8125 -9.734375 L 1.824219 -9.734375 Z M 1.824219 0 "/></g></g><g style="fill:#ffffff;fill-opacity:1;"><g transform="translate(165.795645, 45.309752)"><path style="stroke:none" d=""/></g></g><g style="fill:#ffffff;fill-opacity:1;"><g transform="translate(179.310354, 45.309752)"><path style="stroke:none" d="M 1.851562 -34.929688 C 1.851562 -35.925781 2.117188 -36.921875 2.644531 -37.917969 C 3.175781 -38.917969 3.945312 -39.75 4.953125 -40.421875 C 5.988281 -41.113281 7.238281 -41.457031 8.707031 -41.457031 C 10.167969 -41.457031 11.425781 -41.113281 12.476562 -40.429688 C 13.5 -39.757812 14.289062 -38.929688 14.835938 -37.933594 C 15.390625 -36.933594 15.667969 -35.933594 15.667969 -34.929688 C 15.667969 -33.179688 15.058594 -31.667969 13.847656 -30.390625 C 12.621094 -29.101562 10.90625 -28.453125 8.707031 -28.453125 C 7.390625 -28.453125 6.210938 -28.785156 5.164062 -29.449219 C 4.144531 -30.09375 3.34375 -30.894531 2.757812 -31.859375 C 2.152344 -32.851562 1.851562 -33.875 1.851562 -34.929688 Z M 3.878906 -34.929688 C 3.878906 -34.253906 4.082031 -33.582031 4.488281 -32.914062 C 4.910156 -32.222656 5.496094 -31.636719 6.246094 -31.164062 C 6.964844 -30.707031 7.785156 -30.480469 8.707031 -30.480469 C 10.324219 -30.480469 11.550781 -30.917969 12.375 -31.789062 C 13.21875 -32.675781 13.640625 -33.722656 13.640625 -34.929688 C 13.640625 -35.582031 13.445312 -36.257812 13.0625 -36.953125 C 12.675781 -37.652344 12.109375 -38.246094 11.367188 -38.730469 C 10.652344 -39.195312 9.765625 -39.429688 8.707031 -39.429688 C 7.648438 -39.429688 6.773438 -39.199219 6.078125 -38.734375 C 5.355469 -38.253906 4.808594 -37.664062 4.4375 -36.96875 C 4.066406 -36.269531 3.878906 -35.589844 3.878906 -34.929688 Z M 16.492188 1.015625 L 0.335938 1.015625 L 0.335938 -8.097656 L 3.621094 -8.097656 L 3.621094 -7.082031 L 2.609375 -7.082031 L 2.609375 -20.003906 L 3.621094 -20.003906 L 3.621094 -18.992188 L 0.335938 -18.992188 L 0.335938 -28.046875 L 14.910156 -28.046875 L 14.910156 -7.082031 L 13.894531 -7.082031 L 13.894531 -8.097656 L 17.503906 -8.097656 L 17.503906 1.015625 Z M 16.492188 -1.015625 L 16.492188 0 L 15.476562 0 L 15.476562 -7.082031 L 16.492188 -7.082031 L 16.492188 -6.070312 L 12.882812 -6.070312 L 12.882812 -27.035156 L 13.894531 -27.035156 L 13.894531 -26.019531 L 1.351562 -26.019531 L 1.351562 -27.035156 L 2.367188 -27.035156 L 2.367188 -20.003906 L 1.351562 -20.003906 L 1.351562 -21.019531 L 4.636719 -21.019531 L 4.636719 -6.070312 L 1.351562 -6.070312 L 1.351562 -7.082031 L 2.367188 -7.082031 L 2.367188 0 L 1.351562 0 L 1.351562 -1.015625 Z M 16.492188 -1.015625 "/></g></g><g clip-rule="nonzero" clip-path="url(#e2a0e011aa)"><g style="fill:#ffffff;fill-opacity:1;"><g transform="translate(197.14977, 45.309752)"><path style="stroke:none" d="M -0.203125 0 L -0.203125 -10.746094 L 9.070312 -10.746094 L 9.070312 -9.734375 C 9.070312 -9.136719 9.300781 -8.671875 9.761719 -8.332031 C 10.386719 -7.878906 11.082031 -7.566406 11.84375 -7.398438 C 12.671875 -7.214844 13.320312 -7.125 13.789062 -7.125 C 14.183594 -7.125 14.578125 -7.210938 14.96875 -7.386719 C 15.089844 -7.441406 15.152344 -7.628906 15.152344 -7.949219 L 15.15625 -7.945312 C 15.152344 -7.953125 15.144531 -7.964844 15.128906 -7.980469 C 15.035156 -8.078125 14.863281 -8.175781 14.613281 -8.273438 C 13.859375 -8.5625 12.90625 -8.847656 11.742188 -9.125 C 10.503906 -9.421875 9.222656 -9.789062 7.898438 -10.230469 C 6.585938 -10.691406 5.351562 -11.296875 4.183594 -12.042969 C 2.953125 -12.828125 1.957031 -13.847656 1.191406 -15.097656 C 0.40625 -16.375 0.0117188 -17.957031 0.0117188 -19.84375 C 0.0117188 -21.40625 0.371094 -22.761719 1.085938 -23.917969 C 1.777344 -25.039062 2.671875 -25.957031 3.773438 -26.667969 C 4.835938 -27.355469 5.964844 -27.867188 7.164062 -28.199219 C 8.351562 -28.53125 9.476562 -28.699219 10.542969 -28.699219 C 12.558594 -28.699219 14.382812 -28.238281 16.015625 -27.324219 C 17.671875 -26.394531 18.835938 -25.257812 19.507812 -23.917969 L 18.601562 -23.464844 L 17.59375 -23.589844 L 18.132812 -28.046875 L 26.695312 -28.046875 L 26.695312 -16.289062 L 17.640625 -16.289062 L 17.640625 -17.300781 C 17.640625 -17.804688 17.453125 -18.265625 17.082031 -18.6875 C 16.640625 -19.1875 16.0625 -19.597656 15.347656 -19.917969 C 14.632812 -20.238281 13.894531 -20.398438 13.140625 -20.398438 C 12.785156 -20.398438 12.488281 -20.3125 12.253906 -20.136719 C 12.113281 -20.03125 12.042969 -19.808594 12.042969 -19.464844 C 12.042969 -19.363281 12.183594 -19.234375 12.460938 -19.085938 C 13.035156 -18.773438 13.796875 -18.464844 14.746094 -18.160156 C 15.761719 -17.832031 16.851562 -17.46875 18.011719 -17.070312 C 19.410156 -16.59375 20.792969 -16.039062 22.160156 -15.410156 C 23.636719 -14.734375 24.863281 -13.792969 25.847656 -12.589844 C 26.882812 -11.324219 27.398438 -9.613281 27.398438 -7.460938 C 27.398438 -5.53125 26.847656 -3.871094 25.75 -2.480469 C 24.6875 -1.136719 23.320312 -0.109375 21.648438 0.609375 C 20.007812 1.3125 18.234375 1.664062 16.328125 1.664062 C 14.207031 1.664062 12.339844 1.214844 10.726562 0.320312 C 9.117188 -0.574219 7.945312 -1.597656 7.203125 -2.75 L 8.054688 -3.296875 L 9.058594 -3.148438 L 8.445312 1.015625 L -0.203125 1.015625 Z M 1.824219 0 L 0.8125 0 L 0.8125 -1.015625 L 7.570312 -1.015625 L 7.570312 0 L 6.566406 -0.148438 L 7.449219 -6.121094 L 8.910156 -3.847656 C 9.464844 -2.980469 10.402344 -2.183594 11.710938 -1.453125 C 13.019531 -0.726562 14.558594 -0.363281 16.328125 -0.363281 C 17.957031 -0.363281 19.464844 -0.664062 20.851562 -1.257812 C 22.207031 -1.835938 23.308594 -2.664062 24.15625 -3.738281 C 24.96875 -4.761719 25.371094 -6.003906 25.371094 -7.460938 C 25.371094 -9.132812 25.007812 -10.414062 24.277344 -11.308594 C 23.492188 -12.269531 22.503906 -13.023438 21.3125 -13.570312 C 20.011719 -14.167969 18.691406 -14.695312 17.351562 -15.152344 C 16.203125 -15.546875 15.128906 -15.90625 14.125 -16.230469 C 13.058594 -16.574219 12.179688 -16.929688 11.492188 -17.304688 C 10.507812 -17.835938 10.015625 -18.558594 10.015625 -19.464844 C 10.015625 -20.492188 10.359375 -21.257812 11.050781 -21.765625 C 11.644531 -22.207031 12.339844 -22.425781 13.140625 -22.425781 C 14.183594 -22.425781 15.195312 -22.207031 16.175781 -21.769531 C 17.15625 -21.332031 17.964844 -20.75 18.601562 -20.027344 C 19.3125 -19.222656 19.667969 -18.316406 19.667969 -17.300781 L 18.652344 -17.300781 L 18.652344 -18.316406 L 25.683594 -18.316406 L 25.683594 -17.300781 L 24.667969 -17.300781 L 24.667969 -27.035156 L 25.683594 -27.035156 L 25.683594 -26.019531 L 19.03125 -26.019531 L 19.03125 -27.035156 L 20.039062 -26.914062 L 19.199219 -19.996094 L 17.691406 -23.011719 C 17.210938 -23.980469 16.320312 -24.828125 15.023438 -25.554688 C 13.699219 -26.296875 12.207031 -26.667969 10.542969 -26.667969 C 9.664062 -26.667969 8.71875 -26.527344 7.707031 -26.246094 C 6.707031 -25.96875 5.761719 -25.542969 4.878906 -24.96875 C 4.03125 -24.417969 3.34375 -23.714844 2.808594 -22.851562 C 2.296875 -22.023438 2.042969 -21.019531 2.042969 -19.84375 C 2.042969 -18.339844 2.332031 -17.109375 2.917969 -16.15625 C 3.523438 -15.171875 4.308594 -14.367188 5.277344 -13.75 C 6.3125 -13.089844 7.398438 -12.558594 8.539062 -12.152344 C 9.808594 -11.730469 11.03125 -11.378906 12.210938 -11.097656 C 13.464844 -10.796875 14.507812 -10.488281 15.34375 -10.164062 C 16.566406 -9.691406 17.179688 -8.953125 17.179688 -7.949219 C 17.179688 -7.402344 17.078125 -6.933594 16.867188 -6.535156 C 16.628906 -6.082031 16.273438 -5.75 15.796875 -5.535156 C 15.144531 -5.242188 14.472656 -5.097656 13.789062 -5.097656 C 13.171875 -5.097656 12.378906 -5.203125 11.40625 -5.417969 C 10.367188 -5.644531 9.421875 -6.074219 8.566406 -6.699219 C 7.550781 -7.441406 7.042969 -8.453125 7.042969 -9.734375 L 8.054688 -9.734375 L 8.054688 -8.71875 L 0.8125 -8.71875 L 0.8125 -9.734375 L 1.824219 -9.734375 Z M 1.824219 0 "/></g></g></g><path style=" stroke:none;fill-rule:nonzero;fill:#ffffff;fill-opacity:1;" d="M 19.070312 32.628906 L 29.667969 32.628906 L 29.667969 36.164062 L 19.070312 36.164062 Z M 19.070312 32.628906 "/><g clip-rule="nonzero" clip-path="url(#6ba5b0373b)"><path style=" stroke:none;fill-rule:nonzero;fill:#ffffff;fill-opacity:1;" d="M 40.269531 14.960938 L 36.738281 14.960938 L 36.738281 11.425781 C 36.738281 9.484375 35.144531 7.894531 33.203125 7.894531 L 4.933594 7.894531 C 2.992188 7.894531 1.402344 9.484375 1.402344 11.429688 L 1.402344 39.695312 C 1.402344 41.640625 2.992188 43.230469 4.933594 43.230469 L 8.46875 43.230469 L 8.46875 46.761719 C 8.46875 48.707031 10.058594 50.296875 12 50.296875 L 40.269531 50.296875 C 42.214844 50.296875 43.804688 48.707031 43.804688 46.761719 L 43.804688 18.496094 C 43.804688 16.550781 42.214844 14.960938 40.269531 14.960938 Z M 33.203125 11.429688 L 33.203125 14.960938 L 4.933594 14.960938 L 4.933594 11.429688 Z M 4.933594 39.695312 L 4.933594 18.496094 L 33.203125 18.496094 L 33.203125 39.695312 Z M 40.269531 46.761719 L 12 46.761719 L 12 43.230469 L 33.203125 43.230469 C 35.144531 43.230469 36.738281 41.640625 36.738281 39.695312 L 36.738281 25.5625 L 40.269531 25.5625 Z M 40.269531 22.027344 L 36.738281 22.027344 L 36.738281 18.496094 L 40.269531 18.496094 Z M 40.269531 22.027344 "/></g><path style=" stroke:none;fill-rule:nonzero;fill:#ffffff;fill-opacity:1;" d="M 17.667969 27.84375 L 10.964844 21.144531 L 8.46875 23.640625 L 13.921875 29.09375 L 8.46875 34.546875 L 10.964844 37.042969 L 17.667969 30.34375 C 18.355469 29.652344 18.359375 28.535156 17.667969 27.84375 Z M 17.667969 27.84375 "/></g></svg>