<svg xmlns="http://www.w3.org/2000/svg" xmlns:xlink="http://www.w3.org/1999/xlink" width="366" zoomAndPan="magnify" viewBox="0 0 274.5 374.999991" height="500" preserveAspectRatio="xMidYMid meet" version="1.2"><defs><clipPath id="78885cc9bf"><path d="M 82 0.339844 L 105 0.339844 L 105 81 L 82 81 Z M 82 0.339844 "/></clipPath></defs><g id="a3a85d8c46"><path style=" stroke:none;fill-rule:evenodd;fill:#ffde59;fill-opacity:1;" d="M 24.386719 166.617188 C 30.484375 150.542969 43.785156 135.578125 57.644531 128.375 C 106.417969 102.324219 174.589844 135.027344 169.046875 193.777344 C 167.941406 208.1875 165.167969 217.054688 159.070312 230.910156 C 149.648438 252.527344 135.792969 271.371094 119.71875 285.230469 C 143 271.371094 164.058594 257.515625 176.808594 225.921875 C 196.761719 174.378906 165.167969 115.625 109.742188 106.203125 C 92.007812 102.878906 80.367188 104.542969 64.847656 109.53125 C 43.230469 116.179688 21.617188 135.578125 12.75 157.195312 C 0 189.898438 2.773438 208.742188 11.640625 239.78125 C 19.953125 271.371094 22.171875 269.710938 12.195312 294.652344 C 11.085938 298.53125 12.75 302.410156 16.074219 303.519531 L 75.378906 327.351562 C 79.257812 328.460938 83.140625 326.796875 84.246094 323.472656 L 82.03125 329.570312 C 88.679688 312.386719 89.789062 306.84375 96.996094 300.195312 C 58.75 301.300781 95.332031 320.148438 31.039062 294.652344 C 28.820312 294.097656 28.265625 290.21875 29.929688 288 L 29.375 288 C 34.363281 275.808594 33.808594 271.925781 30.484375 254.746094 C 28.820312 247.539062 24.941406 235.898438 22.726562 227.585938 C 17.738281 207.632812 16.074219 187.679688 24.386719 166.617188 Z M 16.628906 349.523438 L 43.785156 360.609375 C 50.992188 363.378906 46.558594 373.910156 39.351562 371.140625 L 12.195312 360.609375 C 5.542969 357.835938 9.421875 346.75 16.628906 349.523438 Z M 11.085938 329.015625 L 62.078125 348.96875 C 64.847656 350.078125 66.511719 353.402344 65.402344 356.175781 C 64.292969 359.5 60.414062 360.609375 57.644531 359.5 L 7.207031 339.546875 C 3.878906 338.4375 2.773438 335.113281 3.878906 332.339844 C 4.988281 329.015625 8.3125 327.351562 11.085938 329.015625 Z M 17.738281 312.386719 L 68.175781 332.339844 C 71.5 334.003906 72.609375 337.328125 71.5 340.101562 C 70.390625 342.871094 67.066406 344.535156 64.292969 343.425781 L 13.300781 323.472656 C 10.53125 322.363281 8.867188 319.039062 9.976562 315.714844 C 11.085938 312.941406 14.964844 311.28125 17.738281 312.386719 Z M 17.738281 312.386719 "/><g clip-rule="nonzero" clip-path="url(#78885cc9bf)"><path style=" stroke:none;fill-rule:evenodd;fill:#ffde59;fill-opacity:1;" d="M 93.667969 0.339844 C 92.007812 0.339844 90.34375 0.339844 88.679688 0.894531 C 87.574219 0.894531 85.910156 1.449219 85.355469 2.003906 C 83.140625 3.667969 82.03125 6.992188 82.585938 8.101562 C 83.140625 14.75 84.246094 21.957031 84.800781 29.164062 C 85.355469 36.367188 86.464844 43.574219 87.019531 51.332031 C 87.574219 58.539062 88.128906 65.742188 88.679688 73.503906 C 88.679688 75.71875 89.234375 77.9375 89.234375 80.152344 C 90.898438 80.152344 92.007812 80.152344 93.667969 80.152344 C 94.777344 80.152344 96.441406 80.152344 97.550781 80.152344 C 98.105469 77.9375 98.105469 75.71875 98.105469 73.503906 C 98.65625 66.296875 99.210938 59.09375 100.320312 51.886719 C 100.875 44.679688 101.429688 37.476562 101.984375 30.269531 C 103.09375 23.066406 103.644531 15.859375 104.753906 9.210938 C 104.753906 8.65625 103.644531 4.773438 101.984375 3.113281 C 100.875 2.558594 99.765625 2.003906 98.105469 1.449219 C 96.996094 0.894531 95.332031 0.339844 93.667969 0.339844 Z M 93.667969 0.339844 "/></g><path style=" stroke:none;fill-rule:evenodd;fill:#ffde59;fill-opacity:1;" d="M 196.207031 16.96875 C 194.542969 15.859375 192.882812 15.304688 191.21875 14.75 C 189.554688 14.199219 187.894531 13.644531 186.785156 14.199219 C 184.015625 14.199219 181.242188 16.96875 180.6875 18.078125 C 177.917969 25.28125 174.589844 32.488281 171.265625 40.246094 C 167.941406 47.453125 164.058594 55.210938 160.734375 62.972656 C 157.410156 70.730469 153.53125 77.9375 150.203125 85.695312 C 149.09375 87.914062 147.988281 90.128906 146.878906 92.902344 C 147.988281 93.457031 149.648438 94.011719 150.757812 95.117188 C 152.421875 95.671875 153.53125 96.78125 155.191406 97.335938 C 156.300781 95.671875 157.964844 93.457031 159.070312 91.238281 C 164.058594 84.589844 168.496094 77.9375 173.484375 71.285156 C 177.917969 64.082031 182.90625 57.429688 187.894531 50.777344 C 192.328125 44.679688 197.316406 38.03125 201.75 31.933594 C 202.304688 31.378906 203.414062 27.5 202.304688 24.175781 C 202.304688 23.066406 201.195312 21.957031 200.085938 20.292969 C 198.980469 19.1875 197.316406 18.078125 196.207031 16.96875 Z M 196.207031 16.96875 "/><path style=" stroke:none;fill-rule:evenodd;fill:#ffde59;fill-opacity:1;" d="M 9.976562 48.007812 C 9.421875 48.5625 8.3125 49.667969 7.761719 50.222656 C 6.652344 50.777344 6.097656 51.332031 5.542969 51.886719 C 4.988281 53.550781 5.542969 55.765625 6.097656 56.320312 C 8.867188 60.199219 11.640625 64.082031 14.964844 68.515625 C 17.738281 72.394531 20.507812 76.828125 23.832031 80.707031 C 26.605469 85.140625 29.375 89.578125 32.703125 93.457031 C 33.253906 95.117188 34.363281 96.226562 34.917969 97.335938 C 36.027344 96.78125 36.582031 96.226562 37.691406 95.671875 C 38.796875 95.671875 39.351562 95.117188 40.460938 94.566406 C 39.90625 92.902344 38.796875 91.792969 38.242188 90.683594 C 36.027344 85.695312 33.808594 81.261719 32.148438 76.828125 C 29.929688 72.394531 27.714844 67.40625 25.496094 62.972656 C 23.832031 58.539062 21.617188 54.105469 19.953125 49.667969 C 19.953125 49.117188 17.738281 47.453125 16.074219 46.898438 C 14.964844 46.898438 14.410156 46.898438 13.300781 46.898438 C 12.195312 47.453125 11.085938 48.007812 9.976562 48.007812 Z M 9.976562 48.007812 "/><path style=" stroke:none;fill-rule:evenodd;fill:#ffde59;fill-opacity:1;" d="M 271.03125 105.648438 C 271.585938 107.3125 272.695312 108.976562 272.695312 110.082031 C 273.25 111.191406 273.804688 112.855469 273.804688 113.964844 C 273.804688 116.179688 271.03125 118.953125 270.476562 119.507812 C 263.828125 122.277344 257.730469 125.050781 251.078125 128.375 C 244.429688 131.144531 237.777344 134.472656 231.125 137.796875 C 224.472656 141.121094 217.824219 144.449219 211.171875 147.773438 C 208.957031 148.882812 207.292969 149.992188 205.074219 151.097656 C 204.519531 149.992188 203.414062 148.328125 202.859375 147.21875 C 202.304688 146.109375 201.195312 145.003906 200.640625 143.894531 C 202.304688 142.230469 203.96875 141.121094 205.628906 140.015625 C 211.726562 135.578125 217.824219 131.144531 223.367188 126.710938 C 229.460938 122.832031 235.003906 118.398438 241.101562 113.964844 C 246.644531 109.53125 252.1875 105.09375 257.175781 101.214844 C 258.285156 100.660156 261.609375 99.554688 264.382812 100.105469 C 265.488281 100.660156 266.597656 101.214844 267.707031 102.324219 C 268.816406 103.433594 269.921875 104.542969 271.03125 105.648438 Z M 271.03125 105.648438 "/></g></svg>