<svg xmlns="http://www.w3.org/2000/svg" xmlns:xlink="http://www.w3.org/1999/xlink" width="1080" zoomAndPan="magnify" viewBox="0 0 810 809.999993" height="1080" preserveAspectRatio="xMidYMid meet" version="1.2"><g id="2278d2a76c"><path style=" stroke:none;fill-rule:evenodd;fill:#1475b1;fill-opacity:1;" d="M 405.007812 810.019531 C 628.082031 810.019531 810.019531 628.082031 810.019531 405.007812 C 810.019531 181.9375 628.082031 0 405.007812 0 C 181.9375 0 0 181.9375 0 405.007812 C 0 628.082031 181.9375 810.019531 405.007812 810.019531 "/><path style=" stroke:none;fill-rule:evenodd;fill:#1475b1;fill-opacity:1;" d="M 159.066406 559.898438 L 650.949219 559.898438 L 650.949219 250.117188 L 159.066406 250.117188 L 159.066406 559.898438 "/><path style=" stroke:none;fill-rule:nonzero;fill:#ffffff;fill-opacity:1;" d="M 159.066406 233.371094 L 405.011719 233.371094 L 405.011719 266.863281 L 175.8125 266.863281 L 175.8125 543.160156 L 405.011719 543.160156 L 405.011719 576.648438 L 142.320312 576.648438 L 142.320312 233.371094 Z M 405.011719 233.371094 L 667.699219 233.371094 L 667.699219 576.648438 L 405.011719 576.648438 L 405.011719 543.160156 L 634.207031 543.160156 L 634.207031 266.863281 L 405.011719 266.863281 L 405.011719 233.371094 "/><path style=" stroke:none;fill-rule:evenodd;fill:#1475b1;fill-opacity:1;" d="M 405.011719 333.84375 L 527.996094 446.871094 L 650.984375 559.90625 L 159.035156 559.90625 L 282.023438 446.871094 L 405.011719 333.84375 "/><path style=" stroke:none;fill-rule:nonzero;fill:#ffffff;fill-opacity:1;" d="M 405.011719 576.648438 L 159.035156 576.648438 L 147.722656 547.601562 L 270.707031 434.578125 L 393.691406 321.546875 L 405.011719 311.144531 L 405.011719 356.542969 L 293.339844 459.171875 L 201.957031 543.160156 L 405.011719 543.160156 Z M 416.328125 321.546875 L 539.3125 434.578125 L 662.300781 547.601562 L 650.984375 576.648438 L 405.011719 576.648438 L 405.011719 543.160156 L 608.066406 543.160156 L 516.679688 459.171875 L 405.011719 356.542969 L 405.011719 311.144531 L 416.328125 321.546875 "/><path style=" stroke:none;fill-rule:evenodd;fill:#1475b1;fill-opacity:1;" d="M 405.011719 476.175781 L 527.996094 363.148438 L 650.984375 250.117188 L 159.035156 250.117188 L 282.023438 363.148438 L 405.011719 476.175781 "/><path style=" stroke:none;fill-rule:nonzero;fill:#ffffff;fill-opacity:1;" d="M 405.011719 266.863281 L 201.957031 266.863281 L 293.339844 350.847656 L 405.011719 453.476562 L 405.011719 498.875 L 393.691406 488.472656 L 147.722656 262.417969 L 159.035156 233.371094 L 405.011719 233.371094 Z M 405.011719 453.476562 L 516.679688 350.847656 L 608.066406 266.863281 L 405.011719 266.863281 L 405.011719 233.371094 L 650.984375 233.371094 L 662.300781 262.417969 L 539.3125 375.445312 L 416.328125 488.472656 L 405.011719 498.875 L 405.011719 453.476562 "/></g></svg>